<svg width="100" height="100" viewBox="0 0 100 100" fill="none" xmlns="http://www.w3.org/2000/svg">
<rect x="0.75" y="0.75" width="98.5" height="98.5" rx="9.25" fill="#FFECB2"/>
<rect x="0.75" y="0.75" width="98.5" height="98.5" rx="9.25" stroke="black" stroke-width="1.5"/>
<path d="M56.55 14.8C56.55 18.1413 53.8413 20.85 50.5 20.85C47.1587 20.85 44.45 18.1413 44.45 14.8C44.45 11.4587 47.1587 8.75 50.5 8.75C53.8413 8.75 56.55 11.4587 56.55 14.8ZM50.5 26.6C52.7107 26.6 54.7807 25.9914 56.55 24.933V75.5016C54.7807 74.4431 52.7107 73.8346 50.5 73.8346C48.2893 73.8346 46.2193 74.4431 44.45 75.5016V24.933C46.2193 25.9914 48.2893 26.6 50.5 26.6ZM56.55 86.2C56.55 89.5413 53.8413 92.25 50.5 92.25C47.1587 92.25 44.45 89.5413 44.45 86.2C44.45 82.8587 47.1587 80.15 50.5 80.15C53.8413 80.15 56.55 82.8587 56.55 86.2ZM25.2563 16.7107L38.7 30.1544V38.7H30.1336L16.7003 25.2667L25.2563 16.7107ZM16.7003 75.7541L30.1544 62.3H38.7V70.8664L25.2563 84.3101L16.7003 75.7541ZM75.7437 84.3101L62.3 70.8664V62.3H70.8456L84.2997 75.7541L75.7437 84.3101ZM84.2997 25.2667L70.8664 38.7H62.3V30.1544L75.7437 16.7107L84.2997 25.2667ZM8.75 44.45H38.7V56.55H8.75V44.45ZM62.3 44.45H92.25V56.55H62.3V44.45Z" fill="#D24CFF" stroke="#200D26" stroke-width="1.5"/>
</svg>
