<svg width="100" height="100" viewBox="0 0 100 100" fill="none" xmlns="http://www.w3.org/2000/svg">
<g clip-path="url(#clip0_1_6)">
<path d="M57.25 8C57.25 12.0041 54.0041 15.25 50 15.25C45.9959 15.25 42.75 12.0041 42.75 8C42.75 3.99594 45.9959 0.75 50 0.75C54.0041 0.75 57.25 3.99594 57.25 8ZM50 21.75C52.6601 21.75 55.145 20.994 57.25 19.6854V79.6494C55.145 78.3408 52.6601 77.5848 50 77.5848C47.3399 77.5848 44.855 78.3408 42.75 79.6494V19.6854C44.855 20.994 47.3399 21.75 50 21.75ZM57.25 92C57.25 96.0041 54.0041 99.25 50 99.25C45.9959 99.25 42.75 96.0041 42.75 92C42.75 87.9959 45.9959 84.75 50 84.75C54.0041 84.75 57.25 87.9959 57.25 92ZM20.3015 10.0607L36.25 26.0091V36.25H25.9848L10.0485 20.3137L20.3015 10.0607ZM10.0485 79.7107L26.0092 63.75H36.25V74.0152L20.3015 89.9637L10.0485 79.7107ZM79.6985 89.9637L63.75 74.0153V63.75H73.9909L89.9515 79.7107L79.6985 89.9637ZM89.9515 20.3137L74.0152 36.25H63.75V26.0091L79.6985 10.0607L89.9515 20.3137ZM0.75 42.75H36.25V57.25H0.75V42.75ZM63.75 42.75H99.25V57.25H63.75V42.75Z" fill="#D24CFF" stroke="#200D26" stroke-width="1.5"/>
</g>
<defs>
<clipPath id="clip0_1_6">
<rect width="100" height="100" fill="white"/>
</clipPath>
</defs>
</svg>
